<svg xmlns="http://www.w3.org/2000/svg" >

<!--width="240" height="300" -->
<symbol id="face1" viewBox="0 0 63.5 79.4">
 <g transform="translate(0 -218)" fill="currentColor" stroke="currentColor">
  <path d="m36.5 283a18.2 24 0 0 1-20.3-20.9 18.2 24 0 0 1 15.8-26.8 18.2 24 0 0 1 20.3 20.9 18.2 24 0 0 1-15.8 26.8" style="stroke-linecap:round;stroke-linejoin:round;stroke-width:.065;"/>
 </g>
</symbol>
<symbol id="eyes1" viewBox="0 0 63.5 79.4">
 <g fill="currentColor" stroke="currentColor">
  <path d="m27.5 34.7a3.87 2.17 0 0 1-4.32-1.89 3.87 2.17 0 0 1 3.37-2.42 3.87 2.17 0 0 1 4.32 1.89 3.87 2.17 0 0 1-3.36 2.43" style="stroke-linecap:round;stroke-linejoin:round;stroke-width:.065;"/>
  <path d="m41.8 34.4a3.87 2.17 0 0 1-4.32-1.89 3.87 2.17 0 0 1 3.37-2.42 3.87 2.17 0 0 1 4.32 1.89 3.87 2.17 0 0 1-3.36 2.43" style="stroke-linecap:round;stroke-linejoin:round;stroke-width:.065;"/>
 </g>
</symbol>
<symbol id="mouth1" viewBox="0 0 63.5 79.4">
 <g fill="currentColor" stroke="currentColor">
  <path d="m34.8 58.8a5.1 3.35 0 0 1-5.69-2.92 5.1 3.35 0 0 1 4.43-3.74 5.1 3.35 0 0 1 5.69 2.91 5.1 3.35 0 0 1-4.43 3.74" style="stroke-linecap:round;stroke-linejoin:round;stroke-width:.065;"/>
 </g>
</symbol>
<symbol id="hair1" viewBox="0 0 63.5 79.4">
 <g fill="currentColor" stroke="currentColor">
  <path d="m16.5 28.2c-0.604-1.54-1.33-6.6 0-7.94 0.131-0.131 0.488 0.638 0.567 0.756 0.956 1.43 0.383 1.17 1.7-0.472 1.36-1.7 2.47-4.42 4.54-5.1 0.344-0.115 1.95 2.94 4.25 2.36 2.47-0.618 4.88-1.91 7.18-2.83 1.17-0.47 0.614 0.936 1.98 0.661 3.79-0.757 8.8-2.39 12.7-0.85 0.969 0.388 1.34 1.05 2.08 1.42 1.54 0.771 3.12-3.53 3.12 1.98 0 5.63 3.68 3.06-0.0945 9.35-0.377 0.628-0.659 2.08-1.23 2.46-0.342 0.228-0.199-0.766-0.283-0.85-0.268-0.268-0.911-1.32-1.04-1.7-0.432-1.3-4.28-4.54-5.67-4.54-1.4 0-4.16 4.13-4.35 4.06-0.418-0.139-0.671-4.76-2.27-5.29-1.35-0.449-1.87 1.9-3.02 2.36-1.25 0.498-1.85-0.6-2.65-1.13-0.707-0.471-3.76 2.89-3.87 3.12-0.462 0.924-1.01-3.83-2.65-2.74-0.662 0.441-1.09 1.2-1.7 1.61-0.636 0.424-2.89 0.872-3.31 1.7-0.0964 0.193-4.59 1.08-5.1 1.42" style="stroke-linecap:round;stroke-linejoin:round;stroke-width:.065;"/>
 </g>
</symbol>

</svg>